<?xml version="1.0" encoding="UTF-8" standalone="no"?>
<!DOCTYPE svg PUBLIC "-//W3C//DTD SVG 1.1//EN"
 "http://www.w3.org/Graphics/SVG/1.1/DTD/svg11.dtd">
<!-- Generated by graphviz version 2.43.0 (0)
 -->
<!-- Title: %3 Pages: 1 -->
<svg width="251pt" height="226pt"
 viewBox="0.00 0.00 250.99 225.79" xmlns="http://www.w3.org/2000/svg" xmlns:xlink="http://www.w3.org/1999/xlink">
<g id="graph0" class="graph" transform="scale(1 1) rotate(0) translate(4 221.79)">
<title>%3</title>
<polygon fill="white" stroke="transparent" points="-4,4 -4,-221.79 246.99,-221.79 246.99,4 -4,4"/>
<!-- H -->
<g id="node1" class="node">
<title>H</title>
<ellipse fill="none" stroke="black" cx="27" cy="-88.69" rx="27" ry="18"/>
<text text-anchor="middle" x="27" y="-84.99" font-family="Times,serif" font-size="14.00">H</text>
</g>
<!-- B -->
<g id="node2" class="node">
<title>B</title>
<ellipse fill="none" stroke="black" cx="91.9" cy="-127.29" rx="27" ry="18"/>
<text text-anchor="middle" x="91.9" y="-123.59" font-family="Times,serif" font-size="14.00">B</text>
</g>
<!-- H&#45;&#45;B -->
<g id="edge1" class="edge">
<title>H&#45;&#45;B</title>
<path fill="none" stroke="black" d="M47.18,-100.69C54.92,-105.3 63.75,-110.55 71.51,-115.16"/>
<text text-anchor="middle" x="54.34" y="-111.73" font-family="Times,serif" font-size="14.00">2</text>
</g>
<!-- G -->
<g id="node3" class="node">
<title>G</title>
<ellipse fill="none" stroke="black" cx="89.22" cy="-49.25" rx="27" ry="18"/>
<text text-anchor="middle" x="89.22" y="-45.55" font-family="Times,serif" font-size="14.00">G</text>
</g>
<!-- H&#45;&#45;G -->
<g id="edge2" class="edge">
<title>H&#45;&#45;G</title>
<path fill="none" stroke="black" d="M46.69,-76.21C53.95,-71.61 62.18,-66.4 69.45,-61.79"/>
<text text-anchor="middle" x="48.57" y="-57.8" font-family="Times,serif" font-size="14.00">14</text>
</g>
<!-- B&#45;&#45;G -->
<g id="edge3" class="edge">
<title>B&#45;&#45;G</title>
<path fill="none" stroke="black" d="M91.28,-109.19C90.85,-96.58 90.27,-79.84 89.84,-67.25"/>
<text text-anchor="middle" x="85.56" y="-92.02" font-family="Times,serif" font-size="14.00">4</text>
</g>
<!-- D -->
<g id="node4" class="node">
<title>D</title>
<ellipse fill="none" stroke="black" cx="150.1" cy="-82.49" rx="27" ry="18"/>
<text text-anchor="middle" x="150.1" y="-78.79" font-family="Times,serif" font-size="14.00">D</text>
</g>
<!-- B&#45;&#45;D -->
<g id="edge4" class="edge">
<title>B&#45;&#45;D</title>
<path fill="none" stroke="black" d="M109.68,-113.61C116.76,-108.15 124.91,-101.88 132.03,-96.4"/>
<text text-anchor="middle" x="115.85" y="-93.8" font-family="Times,serif" font-size="14.00">9</text>
</g>
<!-- C -->
<g id="node5" class="node">
<title>C</title>
<ellipse fill="none" stroke="black" cx="166.79" cy="-149.73" rx="27" ry="18"/>
<text text-anchor="middle" x="166.79" y="-146.03" font-family="Times,serif" font-size="14.00">C</text>
</g>
<!-- B&#45;&#45;C -->
<g id="edge6" class="edge">
<title>B&#45;&#45;C</title>
<path fill="none" stroke="black" d="M116.84,-134.76C124.92,-137.19 133.89,-139.87 141.96,-142.29"/>
<text text-anchor="middle" x="124.4" y="-142.33" font-family="Times,serif" font-size="14.00">2</text>
</g>
<!-- A -->
<g id="node6" class="node">
<title>A</title>
<ellipse fill="none" stroke="black" cx="112.51" cy="-199.79" rx="27" ry="18"/>
<text text-anchor="middle" x="112.51" y="-196.09" font-family="Times,serif" font-size="14.00">A</text>
</g>
<!-- B&#45;&#45;A -->
<g id="edge7" class="edge">
<title>B&#45;&#45;A</title>
<path fill="none" stroke="black" d="M96.99,-145.21C100.19,-156.45 104.29,-170.88 107.47,-182.07"/>
<text text-anchor="middle" x="97.23" y="-167.44" font-family="Times,serif" font-size="14.00">1</text>
</g>
<!-- G&#45;&#45;D -->
<g id="edge5" class="edge">
<title>G&#45;&#45;D</title>
<path fill="none" stroke="black" d="M110.17,-60.69C116.22,-64 122.83,-67.61 128.9,-70.92"/>
<text text-anchor="middle" x="122.04" y="-54.61" font-family="Times,serif" font-size="14.00">1</text>
</g>
<!-- F -->
<g id="node8" class="node">
<title>F</title>
<ellipse fill="none" stroke="black" cx="164.47" cy="-18" rx="27" ry="18"/>
<text text-anchor="middle" x="164.47" y="-14.3" font-family="Times,serif" font-size="14.00">F</text>
</g>
<!-- G&#45;&#45;F -->
<g id="edge12" class="edge">
<title>G&#45;&#45;F</title>
<path fill="none" stroke="black" d="M112.21,-39.71C121.46,-35.86 132.11,-31.44 141.37,-27.6"/>
<text text-anchor="middle" x="121.79" y="-37.45" font-family="Times,serif" font-size="14.00">6</text>
</g>
<!-- E -->
<g id="node7" class="node">
<title>E</title>
<ellipse fill="none" stroke="black" cx="215.99" cy="-84.48" rx="27" ry="18"/>
<text text-anchor="middle" x="215.99" y="-80.78" font-family="Times,serif" font-size="14.00">E</text>
</g>
<!-- D&#45;&#45;E -->
<g id="edge11" class="edge">
<title>D&#45;&#45;E</title>
<path fill="none" stroke="black" d="M177.28,-83.31C181.1,-83.43 185.04,-83.55 188.87,-83.66"/>
<text text-anchor="middle" x="183.07" y="-72.29" font-family="Times,serif" font-size="14.00">1</text>
</g>
<!-- D&#45;&#45;F -->
<g id="edge13" class="edge">
<title>D&#45;&#45;F</title>
<path fill="none" stroke="black" d="M154.1,-64.53C156.1,-55.58 158.5,-44.8 160.49,-35.87"/>
<text text-anchor="middle" x="152.3" y="-54" font-family="Times,serif" font-size="14.00">3</text>
</g>
<!-- C&#45;&#45;D -->
<g id="edge9" class="edge">
<title>C&#45;&#45;D</title>
<path fill="none" stroke="black" d="M162.32,-131.71C159.92,-122.07 156.98,-110.22 154.58,-100.56"/>
<text text-anchor="middle" x="153.45" y="-119.94" font-family="Times,serif" font-size="14.00">1</text>
</g>
<!-- C&#45;&#45;E -->
<g id="edge10" class="edge">
<title>C&#45;&#45;E</title>
<path fill="none" stroke="black" d="M178.95,-133.6C186.46,-123.64 196.07,-110.89 203.62,-100.88"/>
<text text-anchor="middle" x="186.29" y="-106.04" font-family="Times,serif" font-size="14.00">3</text>
</g>
<!-- A&#45;&#45;C -->
<g id="edge8" class="edge">
<title>A&#45;&#45;C</title>
<path fill="none" stroke="black" d="M128.5,-185.04C135.51,-178.58 143.71,-171.02 150.73,-164.55"/>
<text text-anchor="middle" x="134.61" y="-163.59" font-family="Times,serif" font-size="14.00">4</text>
</g>
<!-- F&#45;&#45;E -->
<g id="edge14" class="edge">
<title>F&#45;&#45;E</title>
<path fill="none" stroke="black" d="M176.94,-34.09C184.92,-44.39 195.25,-57.71 203.27,-68.07"/>
<text text-anchor="middle" x="185.11" y="-54.88" font-family="Times,serif" font-size="14.00">1</text>
</g>
</g>
</svg>
