<?xml version="1.0" encoding="UTF-8" standalone="no"?>
<!DOCTYPE svg PUBLIC "-//W3C//DTD SVG 1.1//EN"
 "http://www.w3.org/Graphics/SVG/1.1/DTD/svg11.dtd">
<!-- Generated by graphviz version 2.43.0 (0)
 -->
<!-- Title: %3 Pages: 1 -->
<svg width="773pt" height="631pt"
 viewBox="0.00 0.00 772.84 631.03" xmlns="http://www.w3.org/2000/svg" xmlns:xlink="http://www.w3.org/1999/xlink">
<g id="graph0" class="graph" transform="scale(1 1) rotate(0) translate(4 627.03)">
<title>%3</title>
<polygon fill="white" stroke="transparent" points="-4,4 -4,-627.03 768.84,-627.03 768.84,4 -4,4"/>
<!-- H -->
<g id="node1" class="node">
<title>H</title>
<polygon fill="aqua" stroke="black" points="311.47,-585.87 272.17,-585.87 260.02,-623.25 247.88,-585.87 208.58,-585.87 240.37,-562.76 228.23,-525.38 260.02,-548.49 291.82,-525.38 279.67,-562.76 311.47,-585.87"/>
<text text-anchor="middle" x="260.02" y="-570.61" font-family="Times,serif" font-size="14.00">H</text>
</g>
<!-- B -->
<g id="node2" class="node">
<title>B</title>
<polygon fill="aqua" stroke="black" points="527.47,-564.27 488.17,-564.27 476.02,-601.65 463.88,-564.27 424.58,-564.27 456.37,-541.16 444.23,-503.78 476.02,-526.89 507.82,-503.78 495.67,-541.16 527.47,-564.27"/>
<text text-anchor="middle" x="476.02" y="-549.01" font-family="Times,serif" font-size="14.00">B</text>
</g>
<!-- H&#45;&#45;B -->
<g id="edge1" class="edge">
<title>H&#45;&#45;B</title>
<path fill="none" stroke="red" d="M291.43,-571.17C329.34,-567.38 393.19,-561 434.97,-556.82"/>
<text text-anchor="middle" x="356.7" y="-570" font-family="Times,serif" font-size="20.00">2</text>
</g>
<!-- G -->
<g id="node3" class="node">
<title>G</title>
<polygon fill="aqua" stroke="black" points="153.07,-420.27 113.77,-420.27 101.62,-457.65 89.48,-420.27 50.18,-420.27 81.97,-397.16 69.83,-359.78 101.62,-382.89 133.42,-359.78 121.27,-397.16 153.07,-420.27"/>
<text text-anchor="middle" x="101.62" y="-405.01" font-family="Times,serif" font-size="14.00">G</text>
</g>
<!-- H&#45;&#45;G -->
<g id="edge2" class="edge">
<title>H&#45;&#45;G</title>
<path fill="none" stroke="red" d="M235.96,-549.16C201.52,-513.15 139.45,-448.26 113.51,-421.15"/>
<text text-anchor="middle" x="161.74" y="-491.16" font-family="Times,serif" font-size="20.00">14</text>
</g>
<!-- B&#45;&#45;G -->
<g id="edge3" class="edge">
<title>B&#45;&#45;G</title>
<path fill="none" stroke="red" d="M452.6,-543.71C387.45,-518.65 204.09,-448.13 131.63,-420.26"/>
<text text-anchor="middle" x="285.62" y="-487.98" font-family="Times,serif" font-size="20.00">4</text>
</g>
<!-- D -->
<g id="node4" class="node">
<title>D</title>
<polygon fill="aqua" stroke="black" points="318.67,-276.27 279.37,-276.27 267.22,-313.65 255.08,-276.27 215.78,-276.27 247.57,-253.16 235.43,-215.78 267.22,-238.89 299.02,-215.78 286.87,-253.16 318.67,-276.27"/>
<text text-anchor="middle" x="267.22" y="-261.01" font-family="Times,serif" font-size="14.00">D</text>
</g>
<!-- B&#45;&#45;D -->
<g id="edge4" class="edge">
<title>B&#45;&#45;D</title>
<path fill="none" stroke="red" d="M447.21,-512.97C400.33,-448.32 309.64,-323.22 278.24,-279.91"/>
<text text-anchor="middle" x="356.22" y="-402.44" font-family="Times,serif" font-size="20.00">9</text>
</g>
<!-- C -->
<g id="node5" class="node">
<title>C</title>
<polygon fill="aqua" stroke="black" points="549.07,-290.67 509.77,-290.67 497.62,-328.05 485.48,-290.67 446.18,-290.67 477.97,-267.56 465.83,-230.18 497.62,-253.29 529.42,-230.18 517.27,-267.56 549.07,-290.67"/>
<text text-anchor="middle" x="497.62" y="-275.41" font-family="Times,serif" font-size="14.00">C</text>
</g>
<!-- B&#45;&#45;C -->
<g id="edge6" class="edge">
<title>B&#45;&#45;C</title>
<path fill="none" stroke="red" d="M478.19,-525.23C482.04,-476.44 490.08,-374.59 494.52,-318.41"/>
<text text-anchor="middle" x="479.86" y="-427.82" font-family="Times,serif" font-size="20.00">2</text>
</g>
<!-- A -->
<g id="node6" class="node">
<title>A</title>
<polygon fill="aqua" stroke="black" points="765.07,-384.27 725.77,-384.27 713.62,-421.65 701.48,-384.27 662.18,-384.27 693.97,-361.16 681.83,-323.78 713.62,-346.89 745.42,-323.78 733.27,-361.16 765.07,-384.27"/>
<text text-anchor="middle" x="713.62" y="-369.01" font-family="Times,serif" font-size="14.00">A</text>
</g>
<!-- B&#45;&#45;A -->
<g id="edge7" class="edge">
<title>B&#45;&#45;A</title>
<path fill="none" stroke="red" d="M497.11,-536.74C544.24,-501.03 657.21,-415.45 698.33,-384.3"/>
<text text-anchor="middle" x="591.22" y="-466.52" font-family="Times,serif" font-size="20.00">1</text>
</g>
<!-- G&#45;&#45;D -->
<g id="edge5" class="edge">
<title>G&#45;&#45;D</title>
<path fill="none" stroke="red" d="M123.96,-389.29C158.92,-358.89 225.5,-300.99 253.88,-276.32"/>
<text text-anchor="middle" x="182.42" y="-338.81" font-family="Times,serif" font-size="20.00">1</text>
</g>
<!-- F -->
<g id="node7" class="node">
<title>F</title>
<polygon fill="aqua" stroke="black" points="102.67,-168.27 63.37,-168.27 51.22,-205.65 39.08,-168.27 -0.22,-168.27 31.57,-145.16 19.43,-107.78 51.22,-130.89 83.02,-107.78 70.87,-145.16 102.67,-168.27"/>
<text text-anchor="middle" x="51.22" y="-153.01" font-family="Times,serif" font-size="14.00">F</text>
</g>
<!-- G&#45;&#45;F -->
<g id="edge12" class="edge">
<title>G&#45;&#45;F</title>
<path fill="none" stroke="red" d="M95.54,-378.32C85.86,-329.88 67.02,-235.72 57.32,-187.22"/>
<text text-anchor="middle" x="69.93" y="-288.77" font-family="Times,serif" font-size="20.00">6</text>
</g>
<!-- D&#45;&#45;F -->
<g id="edge13" class="edge">
<title>D&#45;&#45;F</title>
<path fill="none" stroke="red" d="M246.12,-254.16C205.46,-233.83 116.57,-189.39 74.36,-168.28"/>
<text text-anchor="middle" x="153.74" y="-217.22" font-family="Times,serif" font-size="20.00">3</text>
</g>
<!-- E -->
<g id="node8" class="node">
<title>E</title>
<polygon fill="aqua" stroke="black" points="354.67,-60.27 315.37,-60.27 303.22,-97.65 291.08,-60.27 251.78,-60.27 283.57,-37.16 271.43,0.22 303.22,-22.89 335.02,0.22 322.87,-37.16 354.67,-60.27"/>
<text text-anchor="middle" x="303.22" y="-45.01" font-family="Times,serif" font-size="14.00">E</text>
</g>
<!-- D&#45;&#45;E -->
<g id="edge11" class="edge">
<title>D&#45;&#45;E</title>
<path fill="none" stroke="red" d="M272.15,-235.13C278.87,-194.81 290.87,-122.84 297.82,-81.11"/>
<text text-anchor="middle" x="278.49" y="-164.12" font-family="Times,serif" font-size="20.00">1</text>
</g>
<!-- C&#45;&#45;D -->
<g id="edge9" class="edge">
<title>C&#45;&#45;D</title>
<path fill="none" stroke="red" d="M464.61,-277.05C422.8,-274.44 350.86,-269.94 306.34,-267.16"/>
<text text-anchor="middle" x="378.97" y="-278.11" font-family="Times,serif" font-size="20.00">1</text>
</g>
<!-- C&#45;&#45;E -->
<g id="edge10" class="edge">
<title>C&#45;&#45;E</title>
<path fill="none" stroke="red" d="M471.81,-248.52C429.05,-197.84 345.21,-98.48 314.69,-62.3"/>
<text text-anchor="middle" x="386.75" y="-161.41" font-family="Times,serif" font-size="20.00">3</text>
</g>
<!-- A&#45;&#45;C -->
<g id="edge8" class="edge">
<title>A&#45;&#45;C</title>
<path fill="none" stroke="red" d="M691.32,-363.05C651.33,-345.72 567.59,-309.43 524.5,-290.76"/>
<text text-anchor="middle" x="601.41" y="-332.91" font-family="Times,serif" font-size="20.00">4</text>
</g>
<!-- F&#45;&#45;E -->
<g id="edge14" class="edge">
<title>F&#45;&#45;E</title>
<path fill="none" stroke="red" d="M73.59,-147.13C119.84,-127.31 225.88,-81.86 276.01,-60.38"/>
<text text-anchor="middle" x="168.3" y="-109.75" font-family="Times,serif" font-size="20.00">1</text>
</g>
</g>
</svg>
