<?xml version="1.0" encoding="UTF-8" standalone="no"?>
<!DOCTYPE svg PUBLIC "-//W3C//DTD SVG 1.1//EN"
 "http://www.w3.org/Graphics/SVG/1.1/DTD/svg11.dtd">
<!-- Generated by graphviz version 2.43.0 (0)
 -->
<!-- Title: %3 Pages: 1 -->
<svg width="836pt" height="647pt"
 viewBox="0.00 0.00 836.40 646.60" xmlns="http://www.w3.org/2000/svg" xmlns:xlink="http://www.w3.org/1999/xlink">
<g id="graph0" class="graph" transform="scale(1 1) rotate(0) translate(4 642.6)">
<title>%3</title>
<polygon fill="white" stroke="transparent" points="-4,4 -4,-642.6 832.4,-642.6 832.4,4 -4,4"/>
<!-- H -->
<g id="node1" class="node">
<title>H</title>
<image xlink:href="image.png" width="166px" height="113px" preserveAspectRatio="xMinYMin meet" x="208.8" y="-638.6"/>
<text text-anchor="middle" x="291.8" y="-578.4" font-family="Times,serif" font-size="14.00">H</text>
</g>
<!-- B -->
<g id="node2" class="node">
<title>B</title>
<image xlink:href="image.png" width="166px" height="113px" preserveAspectRatio="xMinYMin meet" x="424.8" y="-617"/>
<text text-anchor="middle" x="507.8" y="-556.8" font-family="Times,serif" font-size="14.00">B</text>
</g>
<!-- H&#45;&#45;B -->
<g id="edge1" class="edge">
<title>H&#45;&#45;B</title>
<path fill="none" stroke="blue" d="M375,-573.78C391.28,-572.15 408.36,-570.44 424.64,-568.82"/>
<text text-anchor="middle" x="390.32" y="-580.3" font-family="Times,serif" font-size="30.00">2</text>
</g>
<!-- G -->
<g id="node3" class="node">
<title>G</title>
<image xlink:href="image.png" width="166px" height="113px" preserveAspectRatio="xMinYMin meet" x="50.4" y="-473"/>
<text text-anchor="middle" x="133.4" y="-412.8" font-family="Times,serif" font-size="14.00">G</text>
</g>
<!-- H&#45;&#45;G -->
<g id="edge2" class="edge">
<title>H&#45;&#45;G</title>
<path fill="none" stroke="blue" d="M237.73,-525.57C221.51,-508.61 203.72,-490.01 187.49,-473.05"/>
<text text-anchor="middle" x="193.61" y="-508.31" font-family="Times,serif" font-size="30.00">14</text>
</g>
<!-- B&#45;&#45;G -->
<g id="edge3" class="edge">
<title>B&#45;&#45;G</title>
<path fill="none" stroke="blue" d="M424.71,-528.54C362.77,-504.72 278.54,-472.32 216.58,-448.49"/>
<text text-anchor="middle" x="311.15" y="-497.52" font-family="Times,serif" font-size="30.00">4</text>
</g>
<!-- D -->
<g id="node4" class="node">
<title>D</title>
<image xlink:href="image.png" width="166px" height="113px" preserveAspectRatio="xMinYMin meet" x="216" y="-329"/>
<text text-anchor="middle" x="299" y="-268.8" font-family="Times,serif" font-size="14.00">D</text>
</g>
<!-- B&#45;&#45;D -->
<g id="edge4" class="edge">
<title>B&#45;&#45;D</title>
<path fill="none" stroke="blue" d="M466.8,-503.94C430.22,-453.49 376.93,-379.98 340.27,-329.42"/>
<text text-anchor="middle" x="394.03" y="-425.68" font-family="Times,serif" font-size="30.00">9</text>
</g>
<!-- C -->
<g id="node5" class="node">
<title>C</title>
<image xlink:href="image.png" width="166px" height="113px" preserveAspectRatio="xMinYMin meet" x="446.4" y="-343.4"/>
<text text-anchor="middle" x="529.4" y="-283.2" font-family="Times,serif" font-size="14.00">C</text>
</g>
<!-- B&#45;&#45;C -->
<g id="edge6" class="edge">
<title>B&#45;&#45;C</title>
<path fill="none" stroke="blue" d="M512.28,-503.81C515.98,-456.85 521.22,-390.45 524.93,-343.52"/>
<text text-anchor="middle" x="509.1" y="-432.66" font-family="Times,serif" font-size="30.00">2</text>
</g>
<!-- A -->
<g id="node6" class="node">
<title>A</title>
<image xlink:href="image.png" width="166px" height="113px" preserveAspectRatio="xMinYMin meet" x="662.4" y="-437"/>
<text text-anchor="middle" x="745.4" y="-376.8" font-family="Times,serif" font-size="14.00">A</text>
</g>
<!-- B&#45;&#45;A -->
<g id="edge7" class="edge">
<title>B&#45;&#45;A</title>
<path fill="none" stroke="blue" d="M582.65,-503.79C610.67,-482.57 642.49,-458.46 670.52,-437.23"/>
<text text-anchor="middle" x="617.08" y="-479.51" font-family="Times,serif" font-size="30.00">1</text>
</g>
<!-- G&#45;&#45;D -->
<g id="edge5" class="edge">
<title>G&#45;&#45;D</title>
<path fill="none" stroke="blue" d="M198.85,-359.59C210.33,-349.6 222.28,-339.21 233.75,-329.23"/>
<text text-anchor="middle" x="225.8" y="-353.41" font-family="Times,serif" font-size="30.00">1</text>
</g>
<!-- F -->
<g id="node7" class="node">
<title>F</title>
<image xlink:href="image.png" width="166px" height="113px" preserveAspectRatio="xMinYMin meet" x="0" y="-221"/>
<text text-anchor="middle" x="83" y="-160.8" font-family="Times,serif" font-size="14.00">F</text>
</g>
<!-- G&#45;&#45;F -->
<g id="edge12" class="edge">
<title>G&#45;&#45;F</title>
<path fill="none" stroke="blue" d="M122.09,-359.95C113.82,-318.59 102.64,-262.72 94.36,-221.3"/>
<text text-anchor="middle" x="98.72" y="-299.62" font-family="Times,serif" font-size="30.00">6</text>
</g>
<!-- D&#45;&#45;F -->
<g id="edge13" class="edge">
<title>D&#45;&#45;F</title>
<path fill="none" stroke="blue" d="M215.8,-230.9C199.52,-222.76 182.44,-214.22 166.16,-206.08"/>
<text text-anchor="middle" x="181.48" y="-227.49" font-family="Times,serif" font-size="30.00">3</text>
</g>
<!-- E -->
<g id="node8" class="node">
<title>E</title>
<image xlink:href="image.png" width="166px" height="113px" preserveAspectRatio="xMinYMin meet" x="252" y="-113"/>
<text text-anchor="middle" x="335" y="-52.8" font-family="Times,serif" font-size="14.00">E</text>
</g>
<!-- D&#45;&#45;E -->
<g id="edge11" class="edge">
<title>D&#45;&#45;E</title>
<path fill="none" stroke="blue" d="M308.46,-215.75C313.73,-184.12 320.27,-144.87 325.54,-113.25"/>
<text text-anchor="middle" x="307.5" y="-173.5" font-family="Times,serif" font-size="30.00">1</text>
</g>
<!-- C&#45;&#45;D -->
<g id="edge9" class="edge">
<title>C&#45;&#45;D</title>
<path fill="none" stroke="blue" d="M446.22,-281.7C425.34,-280.4 402.93,-279 382.06,-277.69"/>
<text text-anchor="middle" x="404.64" y="-288.7" font-family="Times,serif" font-size="30.00">1</text>
</g>
<!-- C&#45;&#45;E -->
<g id="edge10" class="edge">
<title>C&#45;&#45;E</title>
<path fill="none" stroke="blue" d="M481.6,-230.24C451.58,-194.67 413,-148.95 382.96,-113.34"/>
<text text-anchor="middle" x="422.78" y="-180.79" font-family="Times,serif" font-size="30.00">3</text>
</g>
<!-- A&#45;&#45;C -->
<g id="edge8" class="edge">
<title>A&#45;&#45;C</title>
<path fill="none" stroke="blue" d="M662.2,-344.45C645.92,-337.39 628.84,-329.99 612.56,-322.94"/>
<text text-anchor="middle" x="627.88" y="-342.69" font-family="Times,serif" font-size="30.00">4</text>
</g>
<!-- F&#45;&#45;E -->
<g id="edge14" class="edge">
<title>F&#45;&#45;E</title>
<path fill="none" stroke="blue" d="M166.21,-128.84C193.74,-117.04 224.36,-103.92 251.87,-92.13"/>
<text text-anchor="middle" x="199.54" y="-119.48" font-family="Times,serif" font-size="30.00">1</text>
</g>
</g>
</svg>
